<svg viewBox="0 0 24 24" fill="none" xmlns="http://www.w3.org/2000/svg">
<path d="M8.25 12.75C8.66421 12.75 9 12.4142 9 12C9 11.5858 8.66421 11.25 8.25 11.25C7.83579 11.25 7.5 11.5858 7.5 12C7.5 12.4142 7.83579 12.75 8.25 12.75Z" fill="#142159" stroke="#142159" stroke-width="1.5" stroke-linecap="round" stroke-linejoin="round"/>
<path d="M8.25 20.25C8.66422 20.25 9.00001 19.9142 9.00001 19.5C9.00001 19.0858 8.66422 18.75 8.25 18.75C7.83579 18.75 7.5 19.0858 7.5 19.5C7.5 19.9142 7.83579 20.25 8.25 20.25Z" fill="#425DC7" stroke="#425DC7" stroke-width="1.5" stroke-linecap="round" stroke-linejoin="round"/>
<path d="M8.25 5.25C8.66421 5.25 9 4.91421 9 4.5C9 4.08579 8.66421 3.75 8.25 3.75C7.83579 3.75 7.5 4.08579 7.5 4.5C7.5 4.91421 7.83579 5.25 8.25 5.25Z" fill="#142159" stroke="#142159" stroke-width="1.5" stroke-linecap="round" stroke-linejoin="round"/>
<path d="M15.75 12.75C16.1642 12.75 16.5 12.4142 16.5 12C16.5 11.5858 16.1642 11.25 15.75 11.25C15.3358 11.25 15 11.5858 15 12C15 12.4142 15.3358 12.75 15.75 12.75Z" fill="#142159" stroke="#142159" stroke-width="1.5" stroke-linecap="round" stroke-linejoin="round"/>
<path d="M15.75 20.25C16.1642 20.25 16.5 19.9142 16.5 19.5C16.5 19.0858 16.1642 18.75 15.75 18.75C15.3358 18.75 15 19.0858 15 19.5C15 19.9142 15.3358 20.25 15.75 20.25Z" fill="#425DC7" stroke="#425DC7" stroke-width="1.5" stroke-linecap="round" stroke-linejoin="round"/>
<path d="M15.75 5.25C16.1642 5.25 16.5 4.91421 16.5 4.5C16.5 4.08579 16.1642 3.75 15.75 3.75C15.3358 3.75 15 4.08579 15 4.5C15 4.91421 15.3358 5.25 15.75 5.25Z" fill="#142159" stroke="#142159" stroke-width="1.5" stroke-linecap="round" stroke-linejoin="round"/>
</svg>
