<svg viewBox="0 0 24 24" fill="none" xmlns="http://www.w3.org/2000/svg">
<path d="M8.5 9.99976C9.32843 9.99976 10 9.32818 10 8.49976C10 7.67133 9.32843 6.99976 8.5 6.99976C7.67157 6.99976 7 7.67133 7 8.49976C7 9.32818 7.67157 9.99976 8.5 9.99976Z" stroke="#142159" stroke-width="1.5" stroke-linecap="round" stroke-linejoin="round"/>
<path d="M21 14.9998L16 9.99976L5 20.9998" stroke="#142159" stroke-width="1.5" stroke-linecap="round" stroke-linejoin="round"/>
<path d="M19 3H5C3.89543 3 3 3.89543 3 5V19C3 20.1046 3.89543 21 5 21H19C20.1046 21 21 20.1046 21 19V5C21 3.89543 20.1046 3 19 3Z" stroke="#425DC7" stroke-width="1.5" stroke-linecap="round" stroke-linejoin="round"/>
</svg>
