<svg viewBox="0 0 24 24" fill="none" xmlns="http://www.w3.org/2000/svg">
<path fill-rule="evenodd" clip-rule="evenodd" d="M0.375 12C0.375 5.60279 5.60279 0.375 12 0.375C15.6806 0.375 19.0234 2.04618 21.2406 4.97457L21.2423 4.97684C21.5405 5.36451 21.4584 5.95124 21.0519 6.26392C20.6644 6.56202 20.078 6.48005 19.7652 6.07395C17.8811 3.607 15.0515 2.21493 11.9568 2.21493C6.61192 2.21493 2.21493 6.61416 2.21493 12C2.21493 17.387 6.61304 21.7851 12 21.7851C17.387 21.7851 21.7851 17.387 21.7851 12C21.7851 11.4733 22.1783 11.08 22.705 11.08C23.2317 11.08 23.625 11.4733 23.625 12C23.625 18.3972 18.3972 23.625 12 23.625C5.60279 23.625 0.375 18.3972 0.375 12Z" fill="#425DC7"/>
</svg>
