<svg viewBox="0 0 24 24" fill="none" xmlns="http://www.w3.org/2000/svg">
<path d="M12.0002 12.75C12.4145 12.75 12.7502 12.4142 12.7502 12C12.7502 11.5858 12.4145 11.25 12.0002 11.25C11.586 11.25 11.2502 11.5858 11.2502 12C11.2502 12.4142 11.586 12.75 12.0002 12.75Z" fill="#142159" stroke="#142159" stroke-width="1.5" stroke-linecap="round" stroke-linejoin="round"/>
<path d="M12.0002 20.25C12.4145 20.25 12.7502 19.9142 12.7502 19.5C12.7502 19.0858 12.4145 18.75 12.0002 18.75C11.586 18.75 11.2502 19.0858 11.2502 19.5C11.2502 19.9142 11.586 20.25 12.0002 20.25Z" fill="#425DC7" stroke="#425DC7" stroke-width="1.5" stroke-linecap="round" stroke-linejoin="round"/>
<path d="M12.0002 5.25C12.4145 5.25 12.7502 4.91421 12.7502 4.5C12.7502 4.08579 12.4145 3.75 12.0002 3.75C11.586 3.75 11.2502 4.08579 11.2502 4.5C11.2502 4.91421 11.586 5.25 12.0002 5.25Z" fill="#142159" stroke="#142159" stroke-width="1.5" stroke-linecap="round" stroke-linejoin="round"/>


</svg>
