<svg viewBox="0 0 24 24" fill="none" xmlns="http://www.w3.org/2000/svg">
<path d="M19.5 10.3636C19.5 16.0909 12 21 12 21C12 21 4.5 16.0909 4.5 10.3636C4.5 8.41068 5.29018 6.53771 6.6967 5.15676C8.10322 3.77581 10.0109 3 12 3C13.9891 3 15.8968 3.77581 17.3033 5.15676C18.7098 6.53771 19.5 8.41068 19.5 10.3636Z" stroke="#425DC7" stroke-width="1.5" stroke-linecap="round" stroke-linejoin="round"/>
<path d="M12.0007 12.8165C13.3814 12.8165 14.5007 11.7179 14.5007 10.3628C14.5007 9.00771 13.3814 7.90918 12.0007 7.90918C10.62 7.90918 9.50073 9.00771 9.50073 10.3628C9.50073 11.7179 10.62 12.8165 12.0007 12.8165Z" stroke="#142159" stroke-width="1.5" stroke-linecap="round" stroke-linejoin="round"/>


</svg>
